<svg width="30" height="30" viewBox="0 0 30 30" fill="none" xmlns="http://www.w3.org/2000/svg">
<g clip-path="url(#clip0_2099_3738)">
<path d="M9.02336 0.703193C9.36228 0.948138 9.58664 1.24488 9.81804 1.58942C9.88997 1.69434 9.96192 1.79924 10.0339 1.90414C10.0703 1.9576 10.1067 2.01107 10.1442 2.06616C10.3177 2.32013 10.4946 2.57179 10.6713 2.82355C10.7397 2.92121 10.808 3.01886 10.8764 3.11652C11.147 3.50269 11.4191 3.88787 11.6913 4.27292C11.8372 4.47942 11.983 4.68604 12.1288 4.89265C12.1874 4.97565 12.246 5.05866 12.3046 5.14167C12.4218 5.30768 12.539 5.4737 12.6562 5.63972C12.6852 5.68079 12.7142 5.72187 12.744 5.76418C12.8027 5.84733 12.8614 5.93048 12.9201 6.01364C13.0651 6.21902 13.2101 6.42436 13.3552 6.62963C13.6701 7.07527 13.9841 7.52162 14.2968 7.96882C14.637 8.45511 14.9774 8.94125 15.321 9.42511C15.3823 9.51161 15.4433 9.59827 15.5042 9.68506C16.381 10.9981 16.381 10.9981 17.6366 11.8946C18.0865 11.9469 18.4078 11.8951 18.7682 11.6126C19.1227 11.1531 18.9316 10.1913 18.8708 9.63874C18.7651 8.66574 18.7447 7.69042 18.7397 6.71236C18.7392 6.6261 18.7385 6.53983 18.7377 6.45357C18.7298 5.54498 18.7427 4.53065 19.4112 3.83956C19.6527 3.62445 19.8906 3.6094 20.2033 3.61869C20.5905 3.6614 20.8943 3.94541 21.1523 4.21882C21.6696 4.90462 21.7877 5.72338 21.9076 6.55158C22.0887 7.72781 22.429 8.85759 22.8083 9.98332C23.4655 11.9369 24.0946 13.8263 24.0966 15.9046C24.0967 15.9523 24.0968 16 24.0968 16.0491C24.0965 17.0753 24.0024 18.0747 23.8308 19.087C23.6058 20.4168 23.7833 21.4217 24.5507 22.5587C24.6609 22.8892 24.655 23.249 24.5397 23.5767C24.3294 23.8813 24.054 24.0986 23.756 24.3128C23.6995 24.3538 23.6995 24.3538 23.6419 24.3957C23.1764 24.7321 22.7046 25.0596 22.2334 25.388C22.0153 25.5403 21.798 25.6937 21.5807 25.8472C21.5199 25.8902 21.5199 25.8902 21.4579 25.934C21.3365 26.0198 21.2151 26.1056 21.0937 26.1915C20.5174 26.5989 19.9402 27.0051 19.3618 27.4096C19.0903 27.5994 18.8192 27.7898 18.5486 27.981C18.4683 28.0378 18.3879 28.0945 18.3075 28.1512C18.0803 28.3113 17.8538 28.4722 17.6277 28.6339C17.5245 28.7072 17.4213 28.7805 17.318 28.8538C17.2709 28.8878 17.2238 28.9217 17.1752 28.9567C16.2798 29.5903 16.2798 29.5903 15.7708 29.5554C15.1304 29.4335 14.7988 28.8893 14.4522 28.3847C14.3823 28.2817 14.3124 28.1787 14.2426 28.0757C13.8513 27.5062 13.5288 27.2221 12.8393 27.085C11.753 26.8478 10.8154 26.3021 9.99088 25.5669C9.90974 25.495 9.82722 25.4246 9.74457 25.3545C9.10111 24.7996 8.63608 24.1322 8.16506 23.4332C7.97931 23.1584 7.78678 22.889 7.59148 22.6209C7.21585 22.1046 6.84993 21.5817 6.48458 21.0581C6.33548 20.8449 6.18532 20.6324 6.03508 20.42C5.78013 20.0594 5.52644 19.6979 5.27336 19.336C4.93228 18.8483 4.58966 18.3616 4.24609 17.8757C4.10013 17.6691 3.95433 17.4625 3.80852 17.2559C3.74993 17.1729 3.69133 17.0899 3.63274 17.0069C3.51555 16.8409 3.39836 16.6749 3.28118 16.5089C3.25218 16.4678 3.22319 16.4267 3.19331 16.3844C3.13462 16.3012 3.07593 16.2181 3.01725 16.1349C2.87229 15.9296 2.72729 15.7242 2.58217 15.5189C2.19397 14.9697 1.80691 14.4197 1.42243 13.8678C1.30645 13.7016 1.18924 13.5365 1.06949 13.3729C0.658808 12.8084 0.365094 12.2598 0.468677 11.543C0.619973 11.0089 0.858783 10.6353 1.32332 10.33C1.76767 10.0913 2.27319 10.0475 2.75772 10.1894C2.89637 10.245 3.03072 10.3038 3.16399 10.3712C2.83619 9.89173 2.5068 9.41354 2.17156 8.93928C2.12818 8.87787 2.12818 8.87787 2.08392 8.81522C1.93247 8.60106 1.78049 8.38729 1.62796 8.1739C1.45458 7.93099 1.28335 7.68666 1.11321 7.44147C1.07423 7.38603 1.03526 7.33059 0.995105 7.27347C0.708677 6.83827 0.595622 6.37138 0.673755 5.85212C0.795736 5.37191 1.04766 4.974 1.46157 4.69833C1.92957 4.42873 2.39731 4.37221 2.92916 4.49302C3.06794 4.5343 3.20408 4.57854 3.33977 4.62897C3.298 4.56878 3.25623 4.50858 3.2132 4.44656C2.95781 4.07756 2.70253 3.70838 2.4572 3.33259C2.42631 3.28531 2.39542 3.23802 2.36359 3.18931C2.12044 2.74839 2.08959 2.25489 2.20818 1.76841C2.4107 1.21653 2.72335 0.898738 3.25623 0.65055C3.69518 0.509404 4.26773 0.488822 4.69475 0.691291C5.25895 1.05332 5.60686 1.5665 5.96476 2.11823C6.06486 2.27254 6.16721 2.4253 6.26946 2.57819C6.27097 2.52509 6.27248 2.472 6.27404 2.41729C6.30201 1.81646 6.3976 1.36346 6.80985 0.912391C7.41754 0.375482 8.32405 0.279984 9.02336 0.703193Z" fill="#FFCB3F"/>
<path d="M9.02344 0.703068C9.36235 0.948013 9.58672 1.24475 9.81812 1.5893C9.89005 1.69421 9.96199 1.79912 10.034 1.90401C10.0703 1.95748 10.1067 2.01094 10.1442 2.06603C10.3178 2.32001 10.4946 2.57166 10.6714 2.82343C10.7397 2.92108 10.8081 3.01874 10.8765 3.1164C11.1471 3.50257 11.4191 3.88774 11.6913 4.27279C11.8373 4.4793 11.9831 4.68592 12.1289 4.89252C12.1875 4.97553 12.2461 5.05854 12.3047 5.14154C12.4219 5.30756 12.5391 5.47358 12.6562 5.63959C12.6852 5.68067 12.7142 5.72174 12.7441 5.76406C12.8028 5.84721 12.8615 5.93036 12.9202 6.01351C13.0651 6.21889 13.2101 6.42424 13.3553 6.62951C13.6702 7.07514 13.9841 7.5215 14.2969 7.96869C14.6371 8.45498 14.9775 8.94112 15.3211 9.42498C15.3824 9.51148 15.4434 9.59814 15.5042 9.68494C16.4113 11.083 16.4113 11.083 17.7621 11.9187C17.8766 11.9302 17.991 11.9416 18.1055 11.9531C18.0102 12.265 17.8432 12.3983 17.5635 12.5537C17.2043 12.6516 16.9231 12.6462 16.593 12.4621C15.6982 11.8706 15.1095 11.0157 14.5057 10.1506C14.3587 9.94034 14.2106 9.73092 14.0625 9.52143C14.0037 9.4382 13.945 9.35496 13.8863 9.27172C13.7707 9.10795 13.655 8.94422 13.5393 8.78054C13.1892 8.28524 12.8407 7.78889 12.4931 7.29186C12.1868 6.85401 11.8788 6.41733 11.5704 5.981C11.4244 5.77449 11.2786 5.56788 11.1328 5.36127C11.0742 5.27826 11.0156 5.19525 10.957 5.11225C9.90234 3.61811 9.90234 3.61811 9.81437 3.49345C9.75609 3.4109 9.69778 3.32837 9.63944 3.24586C9.48794 3.03149 9.33699 2.81675 9.18686 2.60141C9.15582 2.55704 9.12477 2.51267 9.09279 2.46695C9.03402 2.38292 8.97541 2.29877 8.91701 2.21449C8.57056 1.68861 8.57056 1.68861 8.07495 1.32563C8.03666 1.30825 7.99836 1.29088 7.95891 1.27298C7.71345 1.17564 7.48618 1.15372 7.22534 1.13886C7.18422 1.13633 7.14309 1.1338 7.10072 1.13119C6.99945 1.12499 6.89816 1.11908 6.79688 1.11322C6.98505 0.787059 7.14897 0.630559 7.50732 0.507374C8.03118 0.387086 8.55823 0.421533 9.02344 0.703068Z" fill="#D08513"/>
<path d="M4.69482 0.691174C5.26038 1.05407 5.60382 1.56656 5.96372 2.11808C6.05747 2.26038 6.15586 2.39912 6.25488 2.53779C6.38657 2.72494 6.51091 2.91498 6.63208 3.10908C6.89236 3.52206 7.1776 3.91692 7.46043 4.31457C7.63101 4.55525 7.7998 4.79719 7.96875 5.03901C8.30981 5.52677 8.65245 6.01338 8.99603 6.49937C9.14198 6.70587 9.28778 6.91249 9.43359 7.11909C9.49219 7.2021 9.55078 7.28511 9.60937 7.36811C9.96094 7.86616 10.3125 8.36421 10.6641 8.86226C10.6931 8.90337 10.7221 8.94448 10.752 8.98684C10.8104 9.0696 10.8688 9.15237 10.9272 9.23515C11.0763 9.44652 11.2257 9.65772 11.3754 9.86865C11.5226 10.076 11.6688 10.2839 11.8147 10.4922C11.8898 10.5988 11.9662 10.7043 12.0428 10.8098C12.0857 10.8705 12.1286 10.9311 12.1729 10.9936C12.21 11.0451 12.2472 11.0966 12.2855 11.1497C12.3842 11.3513 12.3834 11.4969 12.3633 11.7187C12.237 11.9106 12.1486 11.9474 11.9275 12.0117C11.6617 12.0117 11.6161 11.9595 11.4258 11.7773C11.2999 11.6145 11.1872 11.4438 11.0742 11.2719C11.0065 11.1709 10.9387 11.07 10.8707 10.9691C10.8364 10.918 10.802 10.8669 10.7666 10.8143C10.6111 10.5864 10.4494 10.3632 10.2869 10.1403C9.91139 9.62425 9.54566 9.10167 9.18048 8.57827C9.02871 8.36118 8.87601 8.14474 8.72314 7.92842C8.69459 7.888 8.66603 7.84759 8.63661 7.80595C8.57938 7.72498 8.52215 7.644 8.46491 7.56304C8.28953 7.31491 8.11437 7.06662 7.93917 6.81837C7.79422 6.613 7.64923 6.40767 7.50412 6.20242C7.15397 5.707 6.80535 5.21054 6.4577 4.71336C6.21135 4.3612 5.96416 4.00965 5.71557 3.65907C5.5559 3.4336 5.39795 3.2071 5.24162 2.97931C4.58325 1.93179 4.58325 1.93179 3.57422 1.28901C3.51621 1.26968 3.4582 1.25034 3.39844 1.23042C3.26788 1.22635 3.13721 1.22546 3.00659 1.22676C2.93748 1.22729 2.86837 1.22781 2.79716 1.22836C2.71774 1.22938 2.71774 1.22938 2.63672 1.23042C2.81422 0.932669 2.96659 0.751335 3.29338 0.62434C3.7262 0.522642 4.28309 0.495955 4.69482 0.691174Z" fill="#D08513"/>
<path d="M3.39844 4.68755C3.8493 5.06569 4.16041 5.60166 4.48586 6.08639C4.62463 6.29112 4.76775 6.49271 4.91089 6.69439C5.16965 7.05978 5.42707 7.42607 5.68359 7.79302C6.02467 8.28076 6.3673 8.76739 6.71087 9.25337C6.85683 9.45988 7.00262 9.6665 7.14844 9.8731C7.20703 9.95611 7.26562 10.0391 7.32422 10.1221C7.44141 10.2881 7.55859 10.4542 7.67578 10.6202C7.70479 10.6613 7.7338 10.7024 7.76369 10.7447C7.82224 10.8277 7.88079 10.9106 7.93932 10.9936C8.11594 11.2439 8.29284 11.494 8.46994 11.7439C8.55746 11.8677 8.64456 11.9918 8.73161 12.1159C8.85052 12.2853 8.97146 12.4529 9.09371 12.6199C9.15331 12.7028 9.21289 12.7858 9.27246 12.8687C9.3145 12.9249 9.3145 12.9249 9.35739 12.9821C9.53327 13.2298 9.59254 13.3978 9.55078 13.711C9.4089 13.9071 9.32377 13.9899 9.08569 14.0406C8.73486 13.969 8.52738 13.696 8.33635 13.4115C8.31172 13.3738 8.28709 13.336 8.26172 13.2972C8.20555 13.2134 8.14932 13.1296 8.09303 13.0459C8.06349 13.0017 8.03395 12.9575 8.00351 12.9119C7.84002 12.6695 7.67171 12.4305 7.50366 12.1912C7.45162 12.117 7.45162 12.117 7.39852 12.0412C7.0909 11.6025 6.78203 11.1647 6.47272 10.7272C6.29734 10.4791 6.12218 10.2308 5.94698 9.98253C5.80203 9.77717 5.65704 9.57184 5.51193 9.36659C5.19697 8.92095 4.88307 8.47458 4.57031 8.0274C4.46674 7.87942 4.36315 7.73145 4.25955 7.58348C4.19523 7.49158 4.13095 7.39964 4.06672 7.30768C3.89368 7.06005 3.71971 6.81314 3.54406 6.56736C3.48442 6.48376 3.42504 6.39998 3.36588 6.31605C3.27506 6.18761 3.1831 6.06007 3.09082 5.93267C3.06392 5.89424 3.03702 5.85582 3.00931 5.81623C2.7675 5.48688 2.46151 5.23264 2.05078 5.1563C1.97062 5.15179 1.89028 5.14997 1.81 5.15058C1.74372 5.15087 1.74372 5.15087 1.6761 5.15115C1.63056 5.15165 1.58501 5.15214 1.53809 5.15264C1.49163 5.15291 1.44518 5.15317 1.39732 5.15344C1.28311 5.15413 1.1689 5.15518 1.05469 5.1563C1.19695 4.8067 1.53826 4.64906 1.86401 4.4898C2.39557 4.38557 2.92274 4.41264 3.39844 4.68755Z" fill="#D08513"/>
<path d="M0.761775 22.5C0.955434 22.6355 1.00929 22.7435 1.05474 22.9687C1.06285 23.0479 1.06909 23.1273 1.07374 23.2068C1.19358 24.9028 1.84977 26.3625 3.12392 27.5137C4.12026 28.3598 5.34574 28.8171 6.63948 28.9083C6.93885 28.9299 7.18206 28.9551 7.42887 29.1414C7.52062 29.2662 7.52543 29.3443 7.52569 29.4983C7.52682 29.5429 7.52796 29.5875 7.52912 29.6335C7.48693 29.8252 7.42684 29.8876 7.26568 30C7.09056 30.0242 6.94238 30.0334 6.76763 30.0293C6.71866 30.0285 6.66968 30.0278 6.61922 30.027C4.74994 29.9683 3.0422 29.0877 1.76588 27.7466C0.656478 26.5278 0.0015684 24.8909 -0.0255785 23.247C-0.0268861 23.1996 -0.0281938 23.1521 -0.029541 23.1031C-0.0286879 22.885 -0.024387 22.7696 0.102366 22.5869C0.317687 22.4451 0.513145 22.4543 0.761775 22.5Z" fill="#4482C3"/>
<path d="M23.2324 -0.0293906C23.3059 -0.0282647 23.3059 -0.0282647 23.3809 -0.0271161C25.2501 0.0315984 26.9579 0.912222 28.2342 2.25325C29.3436 3.47205 29.9985 5.10896 30.0257 6.75284C30.027 6.80033 30.0283 6.84782 30.0296 6.89675C30.0288 7.11485 30.0245 7.23032 29.8977 7.41293C29.6824 7.55474 29.4869 7.54561 29.2383 7.49991C29.0446 7.36435 28.9908 7.25638 28.9453 7.03116C28.9372 6.95197 28.931 6.87258 28.9263 6.79312C28.8065 5.09711 28.1503 3.63738 26.8762 2.48614C25.8798 1.64013 24.6543 1.18282 23.3606 1.09162C23.0612 1.07001 22.818 1.04477 22.5712 0.858442C22.4795 0.733654 22.4746 0.655542 22.4744 0.501615C22.4732 0.456976 22.4721 0.412338 22.4709 0.366346C22.5595 -0.0359275 22.8808 -0.0376195 23.2324 -0.0293906Z" fill="#4482C3"/>
<path d="M2.69518 21.9726C2.9474 22.18 3.03429 22.3206 3.0678 22.6455C3.07137 22.6854 3.07494 22.7253 3.07861 22.7663C3.19671 24.0293 3.73312 25.1135 4.69812 25.9474C5.44086 26.5181 6.28457 26.8426 7.21807 26.9109C7.48559 26.9326 7.68149 26.9869 7.91002 27.1289C8.04627 27.3332 8.04681 27.416 8.02721 27.6562C7.95648 27.8521 7.91468 27.8875 7.73424 28.0078C6.38893 28.1317 5.08881 27.6628 4.03185 26.8432C2.93653 25.9304 2.1504 24.6408 1.99205 23.2031C1.98085 23.0431 1.976 22.8837 1.97374 22.7233C1.97204 22.6824 1.97034 22.6415 1.96859 22.5994C1.96606 22.3944 1.97509 22.2873 2.10306 22.1234C2.30878 21.9696 2.43744 21.9423 2.69518 21.9726Z" fill="#4482C3"/>
<path d="M23.6462 2.05812C25.0099 2.36531 26.3028 3.16748 27.0847 4.34121C27.6314 5.24836 28.011 6.20524 28.026 7.27662C28.0286 7.33797 28.0286 7.33797 28.0312 7.40056C28.0337 7.60559 28.0247 7.71267 27.8967 7.87652C27.691 8.03033 27.5623 8.05768 27.3046 8.02735C27.0524 7.81997 26.9655 7.67935 26.932 7.35444C26.9284 7.31457 26.9249 7.2747 26.9212 7.23362C26.8031 5.97065 26.2667 4.88647 25.3017 4.05259C24.5589 3.48189 23.7152 3.15735 22.7817 3.08903C22.5142 3.06736 22.3183 3.01305 22.0898 2.8711C21.9535 2.66673 21.953 2.58391 21.9726 2.34376C22.1867 1.75086 23.1508 1.96972 23.6462 2.05812Z" fill="#4482C3"/>
<path d="M3.16406 10.371C3.70534 10.8665 4.10999 11.5152 4.52065 12.119C4.68954 12.3671 4.862 12.6126 5.0354 12.8576C5.06462 12.8989 5.09384 12.9402 5.12395 12.9827C5.18321 13.0665 5.24249 13.1502 5.30179 13.2339C5.47791 13.4826 5.65353 13.7316 5.82916 13.9807C5.98037 14.1951 6.1319 14.4092 6.28395 14.623C6.31526 14.6671 6.34657 14.7112 6.37882 14.7566C6.43807 14.8401 6.49742 14.9235 6.55689 15.0068C6.69611 15.2031 6.83225 15.4013 6.9635 15.603C6.98771 15.6401 7.01192 15.6772 7.03686 15.7155C7.08984 15.8202 7.08984 15.8202 7.09351 16.0107C7.0206 16.1994 6.96046 16.2868 6.79688 16.4062C6.63208 16.4721 6.63208 16.4721 6.44531 16.4648C6.13651 16.2662 5.928 15.9882 5.7312 15.6848C5.67542 15.6012 5.61957 15.5178 5.56366 15.4344C5.521 15.3703 5.521 15.3703 5.47749 15.3049C5.33604 15.0946 5.18942 14.888 5.04272 14.6813C4.98359 14.5978 4.92447 14.5143 4.86534 14.4307C4.83597 14.3892 4.8066 14.3478 4.77633 14.3051C4.65861 14.1388 4.54113 13.9724 4.42369 13.8059C4.3652 13.7231 4.30671 13.6402 4.24819 13.5573C4.10072 13.3485 3.95345 13.1396 3.80653 12.9304C3.66085 12.723 3.51464 12.5161 3.36791 12.3095C3.30965 12.2274 3.2515 12.1453 3.19345 12.0631C3.10846 11.943 3.02283 11.8235 2.93701 11.704C2.91193 11.6684 2.88685 11.6328 2.86101 11.5961C2.5807 11.2092 2.23008 10.8994 1.75781 10.7812C1.44572 10.7547 1.13278 10.7674 0.820312 10.7812C0.969261 10.5794 1.09629 10.4442 1.31836 10.3271C1.36247 10.3032 1.40658 10.2793 1.45203 10.2548C1.98311 10.0117 2.6697 10.0673 3.16406 10.371Z" fill="#D08513"/>
<path d="M18.9842 10.6055C19.1014 10.6641 19.1014 10.6641 19.147 10.7671C19.606 12.2081 19.3557 13.1074 18.7565 14.4756C18.5469 15.031 18.5671 15.5453 18.5897 16.132C18.594 16.2493 18.5963 16.3667 18.5986 16.4841C18.6009 16.5535 18.6031 16.6229 18.6055 16.6945C18.5741 16.875 18.5741 16.875 18.4391 17.0166C18.2811 17.1094 18.2811 17.1094 18.0724 17.1094C17.844 17.0429 17.767 17.0144 17.6366 16.8164C17.219 15.3479 17.7042 14.1589 18.3949 12.8838C18.6261 12.449 18.8198 12.0325 18.878 11.5393C18.8908 11.4356 18.8908 11.4356 18.9039 11.3299C18.9111 11.2648 18.9183 11.1998 18.9256 11.1328C18.9322 11.0768 18.9388 11.0209 18.9456 10.9632C18.9593 10.8441 18.9719 10.7248 18.9842 10.6055Z" fill="#D08513"/>
<path d="M19.746 23.9649C19.8962 24.0821 19.8962 24.0821 19.9804 24.2579C20.001 24.4678 20.0064 24.5431 19.9218 24.7266C19.7494 24.9148 19.5457 25.0516 19.3359 25.1954C19.265 25.2447 19.1942 25.2941 19.1234 25.3435C18.9659 25.4528 18.8076 25.561 18.649 25.6687C18.3973 25.8399 18.1486 26.0153 17.9003 26.1915C17.5612 26.4317 17.2208 26.6699 16.8786 26.9056C16.8387 26.9331 16.7988 26.9607 16.7577 26.989C16.3188 27.2905 16.3188 27.2905 15.996 27.2462C15.8121 27.0783 15.7128 26.9711 15.6809 26.721C15.7084 26.4997 15.7622 26.45 15.9326 26.311C15.981 26.2712 16.0293 26.2314 16.0792 26.1904C16.3071 26.0154 16.5386 25.8481 16.776 25.6861C16.8788 25.6151 16.9816 25.5441 17.0843 25.473C17.1366 25.437 17.1889 25.4011 17.2428 25.364C17.5045 25.1835 17.7646 25.0007 18.0248 24.8182C18.1616 24.7224 18.2984 24.6267 18.4353 24.531C18.5351 24.461 18.6349 24.3908 18.7345 24.3206C18.7872 24.2835 18.8398 24.2464 18.8941 24.2082C18.9662 24.1573 18.9662 24.1573 19.0398 24.1054C19.267 23.9507 19.4749 23.9189 19.746 23.9649Z" fill="#FDE6CD"/>
<path d="M8.20311 18.6329C8.42585 18.8323 8.60408 19.0577 8.77806 19.2994C8.80489 19.3363 8.83172 19.3732 8.85937 19.4112C9.2363 19.9329 9.60169 20.4629 9.96693 20.9927C10.0424 21.1011 10.1188 21.2088 10.1962 21.3158C10.2333 21.3675 10.2705 21.4191 10.3088 21.4724C10.3423 21.5182 10.3757 21.5641 10.4102 21.6114C10.5282 21.8033 10.5395 21.9309 10.4883 22.1485C10.3417 22.3572 10.2478 22.4276 10.0012 22.4927C9.46092 22.3645 9.13981 21.6696 8.84397 21.2307C8.66822 20.97 8.48733 20.7131 8.30564 20.4566C8.27619 20.4146 8.24673 20.3726 8.21638 20.3293C8.09178 20.152 7.96624 19.9773 7.83323 19.8061C7.62472 19.5345 7.49497 19.3311 7.52607 18.9796C7.55857 18.8672 7.55857 18.8672 7.68309 18.7171C7.88263 18.6173 7.9833 18.5916 8.20311 18.6329Z" fill="#FDE6CD"/>
<path d="M11.543 23.3788C11.6606 23.4557 11.7641 23.5435 11.8719 23.6336C12.0965 23.7891 12.3483 23.8635 12.6062 23.9487C12.7873 24.0295 12.8545 24.0857 12.9493 24.2577C12.9749 24.4628 12.9749 24.4628 12.9493 24.6679C12.8399 24.8065 12.7547 24.8824 12.5977 24.9609C11.9592 24.9781 11.4553 24.6887 10.9999 24.2607C10.8513 24.0847 10.8227 23.9583 10.8399 23.7304C11.0004 23.3788 11.1646 23.3361 11.543 23.3788Z" fill="#FDE6CD"/>
<path d="M22.0898 22.3242C22.2588 22.4758 22.3154 22.57 22.3572 22.7929C22.3121 23.0333 22.2183 23.1065 22.0312 23.2617C21.9846 23.3029 21.9846 23.3029 21.937 23.345C21.7554 23.4932 21.6129 23.5752 21.3757 23.5876C21.1523 23.5546 21.1523 23.5546 21.0059 23.4667C20.907 23.302 20.8707 23.1673 20.8797 22.9742C20.9582 22.7225 21.1797 22.5883 21.3867 22.4413C21.4363 22.4027 21.4858 22.364 21.5369 22.3242C21.7456 22.2385 21.8753 22.2617 22.0898 22.3242Z" fill="#FDE6CD"/>
<path d="M1.46484 4.6875C1.50352 4.70684 1.54219 4.72617 1.58203 4.74609C1.50469 4.82344 1.42734 4.90078 1.34766 4.98047C1.54102 4.9998 1.73438 5.01914 1.93359 5.03906C1.93359 5.0584 1.93359 5.07773 1.93359 5.09766C1.64355 5.11699 1.35352 5.13633 1.05469 5.15625C1.17212 4.92138 1.25921 4.83902 1.46484 4.6875Z" fill="#DBBE9B"/>
</g>
<defs>
<clipPath id="clip0_2099_3738">
<rect width="30" height="30" fill="white"/>
</clipPath>
</defs>
</svg>
